    <svg viewBox="0 0 116 79" height="79" fill="none" xmlns="http://www.w3.org/2000/svg">
        <path fill="currentColor" fill-rule="evenodd" clip-rule="evenodd" d="M115.247 24.6176C115.247 11.0217 104.118 0 90.3899 0L24.8572 0C11.129 0 1.29342e-05 11.0217 1.29342e-05 24.6176V54.3824C1.29342e-05 67.9783 11.129 79 24.8572 79H90.3899C104.118 79 115.247 67.9783 115.247 54.3824V24.6176ZM110.615 43.6116C110.615 42.6695 109.843 41.9058 108.891 41.9058H107.253C106.302 41.9058 105.53 42.6695 105.53 43.6116V43.8775C105.53 51.9815 105.53 56.0336 104.64 59.3601C103.035 65.3525 99.3906 70.4871 94.4732 74.0038C103.686 72.1333 110.615 64.0592 110.615 54.3824V43.6116ZM105.53 35.6122C105.53 36.5543 106.302 37.318 107.253 37.318H108.891C109.843 37.318 110.615 36.5543 110.615 35.6122V24.6176C110.615 14.9408 103.686 6.86674 94.4732 4.99624C99.3906 8.51294 103.035 13.6475 104.64 19.6399C105.53 22.9664 105.53 27.0185 105.53 35.1225V35.6122ZM70.0657 74.4122H45.1814C36.7032 74.4122 33.3635 74.3735 30.7352 73.6834C23.0868 71.675 17.1132 65.759 15.0853 58.1843C14.3884 55.5814 14.3494 52.2739 14.3494 43.8775V43.6116C14.3494 42.6695 15.121 41.9058 16.0727 41.9058H18.6144C19.5662 41.9058 20.3377 42.6695 20.3377 43.6116V46.4601C20.3377 51.9544 20.3377 54.7015 20.9415 56.9568C22.6055 63.1719 27.5069 68.0261 33.7825 69.674C36.0598 70.272 38.8336 70.272 44.3814 70.272H70.8657C76.4134 70.272 79.1873 70.272 81.4646 69.674C87.7402 68.0261 92.6416 63.1719 94.3056 56.9568C94.9094 54.7015 94.9094 51.9544 94.9094 46.4601V43.6116C94.9094 42.6695 95.6809 41.9058 96.6327 41.9058H99.1744C100.126 41.9058 100.898 42.6695 100.898 43.6116V43.8775C100.898 52.2739 100.859 55.5814 100.162 58.1843C98.1339 65.759 92.1603 71.675 84.5119 73.6834C81.8836 74.3735 78.5438 74.4122 70.0657 74.4122ZM20.7739 74.0038C11.5615 72.1333 4.6325 64.0592 4.6325 54.3824V43.6116C4.6325 42.6695 5.40406 41.9058 6.35582 41.9058H7.9936C8.94537 41.9058 9.71692 42.6695 9.71692 43.6116V43.8775C9.71692 51.9815 9.71693 56.0336 10.6075 59.3601C12.2118 65.3525 15.8565 70.4871 20.7739 74.0038ZM4.6325 35.6122C4.6325 36.5543 5.40406 37.318 6.35582 37.318H7.9936C8.94537 37.318 9.71692 36.5543 9.71692 35.6122V35.1225C9.71692 27.0185 9.71693 22.9664 10.6075 19.6399C12.2118 13.6475 15.8565 8.51294 20.7739 4.99624C11.5615 6.86674 4.6325 14.9408 4.6325 24.6176V35.6122ZM30.7352 5.31661C33.3585 4.62776 36.6905 4.58797 45.1329 4.58782L45.1814 4.58782L70.0657 4.58782L70.1142 4.58782C78.5566 4.58797 81.8886 4.62776 84.5119 5.31661C92.1603 7.325 98.1339 13.241 100.162 20.8157C100.859 23.4186 100.898 26.7261 100.898 35.1225V35.6122C100.898 36.5543 100.126 37.318 99.1744 37.318H96.6327C95.6809 37.318 94.9094 36.5543 94.9094 35.6122V32.5399C94.9094 27.0456 94.9094 24.2985 94.3056 22.0432C92.6416 15.8281 87.7402 10.9739 81.4646 9.32603C79.1873 8.72804 76.4134 8.72805 70.8657 8.72805H44.3814C38.8336 8.72805 36.0598 8.72804 33.7825 9.32603C27.5069 10.9739 22.6055 15.8281 20.9415 22.0432C20.3377 24.2985 20.3377 27.0456 20.3377 32.5399V35.6122C20.3377 36.5543 19.5662 37.318 18.6144 37.318H16.0727C15.121 37.318 14.3494 36.5543 14.3494 35.6122V35.1225C14.3494 26.7261 14.3884 23.4186 15.0853 20.8157C17.1132 13.241 23.0868 7.325 30.7352 5.31661ZM73.0746 35.6122C73.0746 36.5543 73.8461 37.318 74.7979 37.318H88.5536C89.5053 37.318 90.2769 36.5543 90.2769 35.6122V32.5399C90.2769 26.7533 90.2379 24.7507 89.8278 23.219C88.5902 18.5965 84.9448 14.9862 80.2773 13.7606C78.7307 13.3545 76.7086 13.3159 70.8657 13.3159H44.3814C38.5385 13.3159 36.5164 13.3545 34.9698 13.7606C30.3023 14.9862 26.6568 18.5965 25.4193 23.219C25.0092 24.7507 24.9702 26.7533 24.9702 32.5399V35.6122C24.9702 36.5543 25.7418 37.318 26.6935 37.318H40.5904C41.5422 37.318 42.3138 36.5543 42.3138 35.6122V22.9855C42.3138 22.6569 42.6735 22.4518 42.9607 22.6166L67.4717 36.682C67.9025 36.9292 68.4421 36.6215 68.4421 36.1286V24.4286C68.4421 24.1931 68.635 24.0021 68.8729 24.0021H72.6437C72.8817 24.0021 73.0746 24.1931 73.0746 24.4286V35.6122ZM24.9702 43.6116C24.9702 42.6695 25.7418 41.9058 26.6935 41.9058H40.5904C41.5422 41.9058 42.3138 42.6695 42.3138 43.6116V55.9921C42.3138 56.3207 42.6735 56.5259 42.9607 56.361L67.4717 42.2948C67.9025 42.0476 68.4421 42.3553 68.4421 42.8482V54.4595C68.4421 54.695 68.635 54.886 68.8729 54.886H72.6437C72.8817 54.886 73.0746 54.695 73.0746 54.4595V43.6116C73.0746 42.6695 73.8461 41.9058 74.7979 41.9058H88.5536C89.5053 41.9058 90.2769 42.6695 90.2769 43.6116V46.4601C90.2769 52.2467 90.2379 54.2493 89.8278 55.781C88.5902 60.4035 84.9448 64.0138 80.2773 65.2394C78.7307 65.6455 76.7086 65.6841 70.8657 65.6841H44.3814C38.5385 65.6841 36.5164 65.6455 34.9698 65.2394C30.3023 64.0138 26.6568 60.4035 25.4193 55.781C25.0092 54.2493 24.9702 52.2467 24.9702 46.4601V43.6116ZM62.4859 39.8693C62.773 39.7051 62.773 39.2949 62.4859 39.1307L47.5926 30.615C47.3054 30.4507 46.9462 30.6559 46.9462 30.9842V48.0157C46.9462 48.3441 47.3054 48.5492 47.5926 48.385L62.4859 39.8693Z"/>
    </svg>
